<svg xmlns="http://www.w3.org/2000/svg" width="768" height="131" viewBox="0 0 768 131">
  <defs>
    <style>
      .cls-1 {
        stroke: #000;
        stroke-width: 1px;
        fill-rule: evenodd;
      }

      .cls-2 {
        font-size: 51.685px;
        font-family: AcuminConcept-WideBold, "Acumin Variable Concept";
        font-weight: 700;
      }

      .cls-2, .cls-3 {
        text-anchor: middle;
      }

      .cls-3 {
        font-size: 33px;
        font-family: Georgia;
      }
    </style>
  </defs>
  <path class="cls-1" d="M122.212,79.192c0.187,0.179-.449,1.156-0.833,1.664a14.576,14.576,0,0,1-1.664,1.664,8.479,8.479,0,0,0-1.664,2.5,10.735,10.735,0,0,0-.832,3.329c-0.173,1.261-.563,2.7-0.833,4.161-0.427,2.309-.637,3.716,0,4.993,0.994,1.991,3.347,3.018,5.826,3.329V50.9h17.475l4.161,3.329V95.836h2.5V31.758h17.476l3.328,3.329V83.353h3.329v-72.4h19.14l2.5,2.5V70.87c-2.867,1.935-5.605,3.85-8.322,5.825q-2.858,2.077-5.825,4.161c-1.694,1.19-3.382,2.329-4.993,3.329-1.742,1.081-3.79,2.221-5.826,3.329-2.656,1.446-6.162,3.27-7.489,4.161A49.4,49.4,0,0,1,153,95.836c-1.41.674-3.192,1.268-4.161,1.664-3.129,1.28-5.2,2.853-8.321,4.161a64.042,64.042,0,0,1-9.987,2.5c-5.628,1.091-9.012,1.476-12.482,0a9.469,9.469,0,0,1-4.993-4.16c-0.565-1.1-.742-5.214.832-9.986a22.306,22.306,0,0,1,3.329-6.657C119.244,80.8,121.9,78.893,122.212,79.192Z"/>
  <path class="cls-1" d="M121.379,75.031a79.739,79.739,0,0,1-6.657,9.986,19.4,19.4,0,0,0-4.161,8.322,11.085,11.085,0,0,0,.832,7.49,10.4,10.4,0,0,0,4.993,4.161,23.3,23.3,0,0,0,13.315,1.664c8.765-1.34,18.587-6.659,19.973-7.49,6.315-3.784,12.038-6.127,18.308-9.986,6.523-4.015,13.681-9.073,20.8-14.147q7.014-5,14.147-9.986l-5.825-7.49,36.616-8.322L221.241,81.689l-4.161-4.161c-4.633,3.8-9.291,7.367-14.147,10.818-4.164,2.96-8.267,5.7-12.482,8.322-3.418,2.128-7.05,4.272-9.987,5.825-3.492,1.847-8.133,3.86-12.482,5.825-4.614,2.085-9.411,4.384-13.315,5.826a121.089,121.089,0,0,1-14.147,4.16,65.972,65.972,0,0,1-11.651,1.665,30.974,30.974,0,0,1-9.986-.832,24.518,24.518,0,0,1-9.986-4.993c-4.224-3.611-5.989-7.015-6.658-9.987-0.553-2.459-.045-8.878,4.161-15.811a47.529,47.529,0,0,1,9.986-10.818,58.641,58.641,0,0,1,5.826-4.161"/>
  <text id="SME" class="cls-2" x="282.667" y="101.917"><tspan x="282.667">SME</tspan></text>
  <text id="AndMore" class="cls-3" transform="matrix(1.145, 0, 0, 1.145, 442.641, 100.382)"><tspan x="0">AndMore</tspan></text>
</svg>
