<svg width="40" height="40" viewBox="0 0 40 40" fill="none" xmlns="http://www.w3.org/2000/svg">
<rect width="40" height="40" rx="20" fill="#3B6352"/>
<path d="M14.7333 24.1167C14.3911 24.1167 14.0489 24.0894 13.7067 24.035C13.3644 23.9883 13.0417 23.9144 12.7383 23.8133C12.435 23.7044 12.1628 23.5722 11.9217 23.4167C11.7817 23.3233 11.6844 23.2106 11.63 23.0783C11.5756 22.9461 11.5561 22.8178 11.5717 22.6933C11.595 22.5611 11.6456 22.4483 11.7233 22.355C11.8089 22.2539 11.9139 22.1917 12.0383 22.1683C12.1628 22.145 12.2989 22.18 12.4467 22.2733C12.7889 22.4756 13.1506 22.6233 13.5317 22.7167C13.9128 22.81 14.3133 22.8567 14.7333 22.8567C15.3478 22.8567 15.795 22.7556 16.075 22.5533C16.355 22.3433 16.495 22.075 16.495 21.7483C16.495 21.4761 16.3939 21.2622 16.1917 21.1067C15.9972 20.9511 15.6589 20.8228 15.1767 20.7217L13.8933 20.4533C13.1544 20.2978 12.6022 20.0372 12.2367 19.6717C11.8789 19.2983 11.7 18.8083 11.7 18.2017C11.7 17.8206 11.7778 17.4744 11.9333 17.1633C12.0889 16.8522 12.3067 16.5839 12.5867 16.3583C12.8744 16.1328 13.2128 15.9617 13.6017 15.845C13.9983 15.7206 14.4339 15.6583 14.9083 15.6583C15.375 15.6583 15.8183 15.7167 16.2383 15.8333C16.6583 15.95 17.0356 16.1211 17.37 16.3467C17.4944 16.4322 17.5761 16.5372 17.615 16.6617C17.6617 16.7861 17.6733 16.9106 17.65 17.035C17.6267 17.1517 17.5722 17.2528 17.4867 17.3383C17.4011 17.4239 17.2922 17.4744 17.16 17.49C17.0356 17.5056 16.8917 17.4667 16.7283 17.3733C16.4406 17.21 16.1489 17.0933 15.8533 17.0233C15.5578 16.9533 15.2389 16.9183 14.8967 16.9183C14.5389 16.9183 14.2317 16.9689 13.975 17.07C13.7183 17.1711 13.52 17.315 13.38 17.5017C13.2478 17.6806 13.1817 17.8944 13.1817 18.1433C13.1817 18.4233 13.275 18.6489 13.4617 18.82C13.6483 18.9833 13.9672 19.1117 14.4183 19.205L15.69 19.4733C16.46 19.6367 17.0317 19.8933 17.405 20.2433C17.7861 20.5933 17.9767 21.06 17.9767 21.6433C17.9767 22.0167 17.8989 22.355 17.7433 22.6583C17.5956 22.9617 17.3778 23.2222 17.09 23.44C16.81 23.6578 16.4717 23.825 16.075 23.9417C15.6783 24.0583 15.2311 24.1167 14.7333 24.1167ZM19.9584 24.0933C19.7406 24.0933 19.5734 24.0311 19.4567 23.9067C19.34 23.7822 19.2817 23.6111 19.2817 23.3933V16.3817C19.2817 16.1561 19.3439 15.985 19.4684 15.8683C19.5928 15.7439 19.7639 15.6817 19.9817 15.6817C20.1761 15.6817 20.3278 15.7206 20.4367 15.7983C20.5534 15.8683 20.6584 15.9928 20.7517 16.1717L23.6334 21.5033H23.26L26.1417 16.1717C26.235 15.9928 26.3361 15.8683 26.445 15.7983C26.5539 15.7206 26.7056 15.6817 26.9 15.6817C27.1178 15.6817 27.285 15.7439 27.4017 15.8683C27.5184 15.985 27.5767 16.1561 27.5767 16.3817V23.3933C27.5767 23.6111 27.5184 23.7822 27.4017 23.9067C27.2928 24.0311 27.1256 24.0933 26.9 24.0933C26.6822 24.0933 26.515 24.0311 26.3984 23.9067C26.2817 23.7822 26.2234 23.6111 26.2234 23.3933V17.9917H26.48L24.03 22.46C23.9522 22.5922 23.8706 22.6894 23.785 22.7517C23.6995 22.8139 23.5828 22.845 23.435 22.845C23.2872 22.845 23.1667 22.8139 23.0734 22.7517C22.98 22.6817 22.8984 22.5844 22.8284 22.46L20.355 17.98H20.635V23.3933C20.635 23.6111 20.5767 23.7822 20.46 23.9067C20.3511 24.0311 20.1839 24.0933 19.9584 24.0933Z" fill="white"/>
</svg>
